<svg width="158" height="44" viewBox="0 0 158 44" fill="none" xmlns="http://www.w3.org/2000/svg">
<path d="M96.0332 34.305L96.0264 34.6145C95.8869 37.7997 93.6024 40.5065 90.4551 41.1595L84.4219 42.4114L84.0156 42.4837C79.9613 43.0844 76.2473 40.0618 76.0117 35.97L76 35.5569V7.32352H80V35.5569C80 37.4588 81.7472 38.8807 83.6094 38.4944L89.6426 37.2425C91.0348 36.9535 92.0332 35.7269 92.0332 34.305V4.26199H96.0332V34.305Z" fill="white"/>
<path d="M88.0199 7.7883C88.0199 10.5255 85.3291 12.7445 82.0099 12.7445C78.6908 12.7445 76 10.5255 76 7.7883C76 5.05107 78.6908 2.83211 82.0099 2.83211C85.3291 2.83211 88.0199 5.05107 88.0199 7.7883Z" fill="white"/>
<path d="M104 4.95619C104 7.69342 101.309 9.91238 97.9901 9.91238C94.6709 9.91238 91.9801 7.69342 91.9801 4.95619C91.9801 2.21896 94.6709 0 97.9901 0C101.309 0 104 2.21896 104 4.95619Z" fill="white"/>
<path d="M125.69 27.2796L128.99 36.2196H129.35L128.39 27.0996V3.21961C128.39 2.57961 128.49 2.15961 128.69 1.95961C128.93 1.71961 129.37 1.59961 130.01 1.59961H133.19V41.9796C133.19 42.6196 133.07 43.0596 132.83 43.2996C132.63 43.4996 132.21 43.5996 131.57 43.5996H128.45L117.35 18.3996L113.99 8.73961H113.63L114.53 17.1396V41.9796C114.53 42.6196 114.41 43.0596 114.17 43.2996C113.97 43.4996 113.55 43.5996 112.91 43.5996H109.73V3.21961C109.73 2.57961 109.83 2.15961 110.03 1.95961C110.27 1.71961 110.71 1.59961 111.35 1.59961H114.59L125.69 27.2796Z" fill="white"/>
<path d="M146.04 23.5596V40.1196H157.5V41.9796C157.5 42.6196 157.38 43.0596 157.14 43.2996C156.94 43.4996 156.52 43.5996 155.88 43.5996H141.24V3.21961C141.24 2.57961 141.34 2.15961 141.54 1.95961C141.78 1.71961 142.22 1.59961 142.86 1.59961H157.5V3.45961C157.5 4.09961 157.4 4.53961 157.2 4.77961C157.04 4.97961 156.64 5.07961 156 5.07961H146.04V20.0796H155.7V21.9396C155.7 22.5796 155.6 23.0196 155.4 23.2596C155.24 23.4596 154.84 23.5596 154.2 23.5596H146.04Z" fill="white"/>
<path d="M5.12001 22.96V39.52H16.58V41.38C16.58 42.02 16.46 42.46 16.22 42.7C16.02 42.9 15.6 43 14.96 43H0.320007V2.62C0.320007 1.98 0.420007 1.56 0.620007 1.36C0.860007 1.12 1.30001 0.999997 1.94001 0.999997H16.58V2.86C16.58 3.5 16.48 3.94 16.28 4.18C16.12 4.38 15.72 4.48 15.08 4.48H5.12001V19.48H14.78V21.34C14.78 21.98 14.68 22.42 14.48 22.66C14.32 22.86 13.92 22.96 13.28 22.96H5.12001Z" fill="white"/>
<path d="M27.8403 22.96V41.38C27.8403 42.02 27.7203 42.46 27.4803 42.7C27.2803 42.9 26.8603 43 26.2203 43H23.0403V6.7C23.0403 4.62 23.4603 3.16 24.3003 2.32C25.1803 1.44 26.6603 0.999997 28.7403 0.999997H37.3803C39.4603 0.999997 40.9203 1.44 41.7603 2.32C42.6403 3.16 43.0803 4.62 43.0803 6.7V41.38C43.0803 42.02 42.9603 42.46 42.7203 42.7C42.5203 42.9 42.1003 43 41.4603 43H38.2803V7.9C38.2803 6.74 38.1203 5.9 37.8003 5.38C37.5203 4.86 36.8603 4.56 35.8203 4.48H30.3003C29.2203 4.56 28.5403 4.86 28.2603 5.38C27.9803 5.9 27.8403 6.74 27.8403 7.9V19.48H35.8803V21.34C35.8803 21.98 35.7803 22.42 35.5803 22.66C35.4203 22.86 35.0203 22.96 34.3803 22.96H27.8403Z" fill="white"/>
<path d="M70.5941 0.999997V2.86C70.5941 3.5 70.4741 3.94 70.2341 4.18C70.0341 4.38 69.6141 4.48 68.9741 4.48H61.7741V41.38C61.7741 42.02 61.6541 42.46 61.4141 42.7C61.2141 42.9 60.7941 43 60.1541 43H56.9741V4.48H48.2741V2.62C48.2741 1.98 48.3741 1.56 48.5741 1.36C48.8141 1.12 49.2541 0.999997 49.8941 0.999997H70.5941Z" fill="white"/>
</svg>
