<svg width="33" height="32" viewBox="0 0 33 32" fill="none" xmlns="http://www.w3.org/2000/svg">
<path fill-rule="evenodd" clip-rule="evenodd" d="M3.3 14.4C3.3 8.21443 8.47113 3.2 14.85 3.2C21.2289 3.2 26.4 8.21443 26.4 14.4C26.4 20.5856 21.2289 25.6 14.85 25.6C8.47113 25.6 3.3 20.5856 3.3 14.4ZM14.85 0C6.64858 0 0 6.44711 0 14.4C0 22.353 6.64858 28.8 14.85 28.8C18.3563 28.8 21.5787 27.6216 24.1192 25.6511L30.1833 31.5314C30.8276 32.1562 31.8724 32.1562 32.5168 31.5314C33.1611 30.9066 33.1611 29.8935 32.5168 29.2687L26.4527 23.3883C28.4848 20.9248 29.7 17.8 29.7 14.4C29.7 6.44711 23.0515 0 14.85 0Z" fill="white"/>
</svg>
