<svg width="33" height="33" viewBox="0 0 33 33" fill="none" xmlns="http://www.w3.org/2000/svg">
<path fill-rule="evenodd" clip-rule="evenodd" d="M16.5 11C13.4624 11 11 13.4624 11 16.5C11 19.5376 13.4624 22 16.5 22C19.5376 22 22 19.5376 22 16.5C22 13.4624 19.5376 11 16.5 11ZM13.2 16.5C13.2 14.6775 14.6775 13.2 16.5 13.2C18.3225 13.2 19.8 14.6775 19.8 16.5C19.8 18.3225 18.3225 19.8 16.5 19.8C14.6775 19.8 13.2 18.3225 13.2 16.5Z" fill="white"/>
<path fill-rule="evenodd" clip-rule="evenodd" d="M16.459 6.51985e-07C15.7386 -1.46969e-05 15.137 -1.47686e-05 14.6432 0.0318801C14.1291 0.065095 13.6436 0.136682 13.1728 0.321298C12.0805 0.749699 11.2126 1.5714 10.7602 2.60565C10.5246 3.14409 10.4608 3.71153 10.4365 4.32831C10.4169 4.82413 10.1526 5.23781 9.76259 5.451C9.37258 5.6642 8.86206 5.67405 8.39877 5.44221C7.82243 5.15379 7.2715 4.92236 6.66122 4.84629C5.48899 4.70017 4.30346 5.00094 3.36544 5.68243C2.9612 5.97612 2.65293 6.33846 2.36554 6.74336C2.08945 7.13231 1.78872 7.62553 1.42846 8.21634L1.38753 8.28348C1.02725 8.87427 0.726506 9.36746 0.508775 9.78831C0.282128 10.2264 0.104827 10.6604 0.0383132 11.1387C-0.116016 12.2486 0.201656 13.371 0.921412 14.2592C1.29608 14.7214 1.78314 15.0575 2.33503 15.3858C2.77886 15.6498 3.02515 16.0735 3.02512 16.5C3.02511 16.9264 2.77881 17.35 2.33503 17.614C1.78308 17.9423 1.29597 18.2785 0.921265 18.7408C0.201494 19.6289 -0.116162 20.7513 0.0381511 21.8612C0.104665 22.3395 0.281966 22.7735 0.508613 23.2116C0.726344 23.6325 1.02709 24.1256 1.38735 24.7164L1.4283 24.7836C1.78856 25.3744 2.08929 25.8676 2.36538 26.2565C2.65277 26.6614 2.96104 27.0238 3.36528 27.3174C4.3033 27.9989 5.48883 28.2997 6.66106 28.1536C7.2713 28.0775 7.82221 27.8462 8.39851 27.5578C8.86187 27.3258 9.37245 27.3357 9.76251 27.549C10.1526 27.7622 10.4169 28.1759 10.4365 28.6718C10.4608 29.2885 10.5246 29.8559 10.7602 30.3944C11.2126 31.4286 12.0805 32.2504 13.1728 32.6788C13.6436 32.8634 14.1291 32.9349 14.6432 32.9681C15.137 33 15.7386 33 16.459 33H16.5408C17.2614 33 17.8629 33 18.3568 32.9681C18.8709 32.9349 19.3564 32.8634 19.8272 32.6788C20.9195 32.2504 21.7874 31.4286 22.2398 30.3944C22.4754 29.8559 22.5391 29.2885 22.5634 28.6716C22.583 28.1759 22.8473 27.7622 23.2373 27.5489C23.6274 27.3357 24.138 27.3258 24.6013 27.5576C25.1776 27.846 25.7285 28.0775 26.3388 28.1534C27.511 28.2996 28.6966 27.9989 29.6345 27.3174C30.0388 27.0236 30.347 26.6614 30.6344 26.2565C30.9105 25.8676 31.2112 25.3744 31.5714 24.7836L31.6124 24.7164C31.9727 24.1256 32.2735 23.6323 32.4912 23.2114C32.7179 22.7734 32.8951 22.3395 32.9617 21.8612C33.116 20.7512 32.7983 19.6287 32.0785 18.7406C31.7039 18.2783 31.2167 17.9423 30.6649 17.614C30.221 17.35 29.9748 16.9264 29.9748 16.4998C29.9748 16.0735 30.221 15.65 30.6647 15.386C31.2169 15.0577 31.704 14.7217 32.0787 14.2592C32.7984 13.3711 33.1162 12.2487 32.9618 11.1388C32.8952 10.6605 32.718 10.2265 32.4914 9.78841C32.2737 9.3676 31.973 8.87444 31.6126 8.28369L31.5718 8.21651C31.2114 7.62569 30.9107 7.13242 30.6346 6.74347C30.3472 6.33856 30.039 5.97622 29.6347 5.68252C28.6967 5.00105 27.5112 4.70028 26.3388 4.8464C25.7286 4.92246 25.1778 5.15386 24.6015 5.44227C24.1382 5.67414 23.6275 5.66427 23.2375 5.45105C22.8474 5.23784 22.583 4.82409 22.5634 4.32823C22.5391 3.71147 22.4754 3.14406 22.2398 2.60565C21.7874 1.5714 20.9195 0.749699 19.8272 0.321298C19.3564 0.136682 18.8709 0.065095 18.3568 0.0318801C17.8629 -1.47686e-05 17.2614 -1.46969e-05 16.5408 6.51985e-07H16.459ZM14.1033 2.44837C14.2285 2.39932 14.4185 2.35408 14.8087 2.32886C15.2099 2.30296 15.728 2.30233 16.5 2.30233C17.272 2.30233 17.7901 2.30296 18.1911 2.32886C18.5815 2.35408 18.7715 2.39932 18.8965 2.44837C19.393 2.6431 19.7876 3.0166 19.9932 3.48672C20.0582 3.635 20.1118 3.86617 20.1335 4.41428C20.1815 5.63049 20.8446 6.80152 22.0216 7.44492C23.1986 8.08835 24.6013 8.04648 25.7377 7.47777C26.2498 7.22148 26.4883 7.14998 26.6562 7.12903C27.1891 7.06261 27.7279 7.19933 28.1543 7.50908C28.2618 7.58712 28.3981 7.7203 28.6163 8.02769C28.8407 8.34368 29.1002 8.76818 29.4862 9.40116C29.8722 10.0342 30.1308 10.4593 30.3076 10.8012C30.4796 11.1338 30.5333 11.3122 30.5509 11.4393C30.6211 11.9438 30.4767 12.454 30.1496 12.8577C30.0463 12.985 29.8618 13.1447 29.3711 13.4365C28.2828 14.0841 27.5433 15.2132 27.5431 16.4998C27.5431 17.7867 28.2827 18.9159 29.3711 19.5635C29.8616 19.8553 30.0461 20.0149 30.1494 20.1423C30.4765 20.546 30.621 21.0561 30.5508 21.5607C30.5331 21.6878 30.4794 21.8661 30.3075 22.1987C30.1306 22.5405 29.872 22.9657 29.486 23.5987C29.1 24.2317 28.8405 24.6562 28.6161 24.9723C28.3979 25.2795 28.2616 25.4128 28.1541 25.4907C27.7278 25.8006 27.1889 25.9372 26.6561 25.8709C26.4881 25.8499 26.2497 25.7784 25.7375 25.5222C24.6011 24.9534 23.1984 24.9116 22.0213 25.555C20.8446 26.1985 20.1815 27.3694 20.1335 28.5857C20.1118 29.1338 20.0582 29.3649 19.9932 29.5134C19.7876 29.9833 19.393 30.3569 18.8965 30.5517C18.7715 30.6007 18.5815 30.6459 18.1911 30.6711C17.7901 30.6971 17.272 30.6977 16.5 30.6977C15.728 30.6977 15.2099 30.6971 14.8087 30.6711C14.4185 30.6459 14.2285 30.6007 14.1033 30.5517C13.607 30.3569 13.2124 29.9833 13.0067 29.5134C12.9419 29.3649 12.8881 29.1338 12.8664 28.5857C12.8184 27.3696 12.1554 26.1985 10.9783 25.555C9.80132 24.9116 8.3987 24.9535 7.26224 25.5222C6.75009 25.7785 6.51175 25.8501 6.34367 25.8709C5.81083 25.9374 5.27196 25.8006 4.84559 25.4909C4.73818 25.4129 4.60179 25.2797 4.38361 24.9723C4.15933 24.6564 3.89971 24.2318 3.51372 23.5988C3.12772 22.9659 2.86925 22.5407 2.69237 22.1989C2.52031 21.8663 2.46668 21.6878 2.44901 21.5607C2.37887 21.0561 2.52326 20.546 2.85043 20.1423C2.95363 20.015 3.1382 19.8553 3.62873 19.5635C4.7171 18.9161 5.45672 17.7868 5.45678 16.5002C5.45686 15.2132 4.71722 14.0839 3.62874 13.4364C3.13832 13.1446 2.95378 12.9849 2.85058 12.8576C2.52342 12.4539 2.37903 11.9437 2.44918 11.4392C2.46685 11.3121 2.52047 11.1337 2.69254 10.8011C2.86941 10.4592 3.12788 10.0341 3.51387 9.40106C3.89987 8.76807 4.15948 8.34357 4.38377 8.02758C4.60196 7.72021 4.73834 7.58701 4.84574 7.50899C5.27212 7.19922 5.811 7.06251 6.34382 7.12892C6.51191 7.14987 6.75026 7.22137 7.26249 7.47771C8.39888 8.0464 9.80143 8.08825 10.9784 7.44488C12.1554 6.8015 12.8184 5.63052 12.8664 4.41436C12.8881 3.8662 12.9419 3.63502 13.0067 3.48672C13.2124 3.0166 13.607 2.6431 14.1033 2.44837Z" fill="white"/>
</svg>
